<svg width="26" height="23" viewBox="0 0 26 23" fill="none" xmlns="http://www.w3.org/2000/svg">
<path d="M21.3333 8.75H16.3728L11.8111 0.846328C11.7503 0.741101 11.6625 0.653652 11.5565 0.592835C11.4506 0.532018 11.3303 0.499992 11.2078 0.5L8.36494 0.5C7.90356 0.5 7.57066 0.936992 7.6974 1.37613L9.82545 8.75H5.36102L3.48601 6.275C3.35493 6.10184 3.14877 6 2.93045 6H1.19477C0.742942 6 0.411343 6.42023 0.521152 6.85422L1.88878 11.5L0.521152 16.1458C0.411343 16.5798 0.742942 17 1.19477 17H2.93045C3.1492 17 3.35493 16.8982 3.48601 16.725L5.36102 14.25H9.82545L7.6974 21.6234C7.57066 22.0626 7.90356 22.5 8.36494 22.5H11.2078C11.457 22.5 11.687 22.3677 11.8107 22.1537L16.3728 14.25H21.3333C22.8676 14.25 25.5 13.0189 25.5 11.5C25.5 9.98105 22.8676 8.75 21.3333 8.75Z" fill="#0A001F"/>
</svg>
